<svg xmlns="http://www.w3.org/2000/svg" xmlns:xlink="http://www.w3.org/1999/xlink" width="1000" zoomAndPan="magnify" viewBox="0 0 750 749.999995" height="1000" preserveAspectRatio="xMidYMid meet" version="1.0"><defs><clipPath id="91f59cbef2"><path d="M 229 205.605469 L 316 205.605469 L 316 325 L 229 325 Z M 229 205.605469 " clip-rule="nonzero"/></clipPath><clipPath id="413ce5ab8f"><path d="M 226.78125 207 L 286 207 L 286 300 L 226.78125 300 Z M 226.78125 207 " clip-rule="nonzero"/></clipPath><clipPath id="6ab2c2123c"><path d="M 277 256 L 521 256 L 521 544.605469 L 277 544.605469 Z M 277 256 " clip-rule="nonzero"/></clipPath></defs><path fill="#eeeeeb" d="M 305.910156 359.609375 C 350.570312 315.53125 373.269531 251.972656 373.78125 250.621094 C 346.40625 229.859375 323.269531 218.164062 323.269531 218.164062 C 352.328125 235.488281 363.144531 245.066406 363.144531 245.066406 C 350.097656 277.117188 334.710938 303.507812 321.042969 323.28125 C 313.953125 333.476562 307.882812 341.152344 303.679688 346.195312 C 299.84375 350.761719 297.578125 353.101562 297.578125 353.101562 C 275.71875 343.269531 255.4375 329.785156 255.4375 329.785156 C 255.4375 329.785156 274.515625 343.492188 305.910156 359.609375 Z M 371.550781 251.277344 C 366.726562 263.925781 361.0625 276.242188 354.777344 288.230469 C 348.453125 300.253906 341.472656 311.949219 333.761719 323.132812 C 325.351562 335.269531 315.996094 346.890625 305.546875 357.34375 C 303.425781 356.285156 301.339844 355.148438 299.222656 354.054688 C 301.230469 351.898438 303.207031 349.59375 305.070312 347.367188 C 311.246094 339.984375 317.058594 332.234375 322.539062 324.304688 C 337.78125 302.300781 350.828125 278.472656 361.429688 253.910156 C 362.523438 251.351562 363.621094 248.792969 364.683594 246.199219 C 366.984375 247.878906 369.285156 249.5625 371.550781 251.277344 Z M 371.550781 251.277344 " fill-opacity="1" fill-rule="evenodd"/><path fill="#eeeeeb" d="M 316.765625 319.769531 C 329.007812 302.082031 342.75 278.472656 354.445312 249.78125 C 321.917969 317.90625 293.191406 338.046875 293.191406 338.046875 C 277.070312 335.160156 267.496094 331.140625 262.523438 328.433594 C 269.101562 332.527344 282.078125 340.277344 295.785156 346.453125 C 295.785156 346.453125 297.832031 344.332031 301.230469 340.238281 C 304.996094 335.78125 310.441406 328.871094 316.765625 319.769531 Z M 299.585938 335.085938 C 304.449219 330.589844 308.980469 325.617188 313.183594 320.539062 C 315.15625 318.125 317.09375 315.714844 318.957031 313.230469 C 317.753906 315.054688 316.507812 316.882812 315.265625 318.710938 C 310.40625 325.691406 305.289062 332.5625 299.84375 339.070312 C 298.382812 340.785156 296.882812 342.578125 295.347656 344.222656 C 290.777344 342.140625 286.28125 339.875 281.824219 337.496094 C 285.480469 338.410156 289.171875 339.214844 292.863281 339.875 L 293.628906 339.984375 L 294.25 339.542969 C 296.078125 338.265625 297.941406 336.585938 299.585938 335.085938 Z M 299.585938 335.085938 " fill-opacity="1" fill-rule="evenodd"/><g clip-path="url(#91f59cbef2)"><path fill="#eeeeeb" d="M 256.167969 290.496094 L 253.460938 294.40625 C 254.230469 293.273438 255.144531 291.957031 256.167969 290.496094 Z M 248.34375 324.414062 C 290.339844 269.882812 315.59375 213.925781 315.59375 213.925781 C 309.859375 210.050781 305.070312 209.175781 305.070312 209.175781 C 282.078125 254.675781 264.753906 278.472656 256.164062 290.496094 C 279.15625 257.128906 302.21875 210.492188 302.21875 210.492188 C 296.222656 206.433594 292.714844 205.703125 292.714844 205.703125 C 253.679688 272.953125 229.304688 304.675781 229.304688 304.675781 C 231.863281 311.144531 238.585938 313.449219 238.585938 313.449219 C 237.820312 317.503906 248.34375 324.414062 248.34375 324.414062 Z M 296.042969 247.988281 C 281.789062 273.609375 265.78125 298.609375 247.945312 321.890625 C 246.445312 320.832031 244.984375 319.625 243.703125 318.417969 C 242.753906 317.578125 241.769531 316.554688 241.074219 315.496094 C 240.816406 315.128906 240.304688 314.253906 240.378906 313.777344 L 240.671875 312.207031 L 239.171875 311.695312 C 238.074219 311.328125 236.796875 310.5625 235.84375 309.941406 C 233.980469 308.625 232.445312 306.941406 231.421875 304.933594 C 232.738281 303.179688 234.054688 301.386719 235.332031 299.597656 C 239.683594 293.566406 243.886719 287.460938 248.015625 281.285156 C 264.0625 257.417969 279.121094 232.746094 293.59375 207.894531 C 293.957031 208.039062 294.324219 208.1875 294.652344 208.332031 C 296.40625 209.101562 298.160156 210.050781 299.84375 211.109375 C 296.808594 217.214844 293.628906 223.28125 290.414062 229.273438 C 282.921875 243.382812 275.0625 257.34375 266.65625 270.941406 C 262.820312 277.191406 258.835938 283.40625 254.667969 289.472656 C 253.753906 290.75 252.84375 292.03125 251.929688 293.347656 L 250.902344 294.882812 L 253.902344 296.964844 L 254.960938 295.46875 C 255.875 294.1875 256.789062 292.871094 257.703125 291.558594 C 260.371094 287.792969 263.074219 283.992188 265.707031 280.152344 C 269.507812 274.636719 273.199219 269.042969 276.78125 263.378906 C 287.378906 246.527344 297.066406 229.058594 306.058594 211.296875 C 306.570312 211.476562 307.117188 211.660156 307.554688 211.808594 C 309.527344 212.574219 311.464844 213.523438 313.257812 214.621094 C 311.976562 217.398438 310.625 220.175781 309.273438 222.882812 C 305.070312 231.359375 300.648438 239.730469 296.042969 247.988281 Z M 296.042969 247.988281 " fill-opacity="1" fill-rule="evenodd"/></g><g clip-path="url(#413ce5ab8f)"><path fill="#eeeeeb" d="M 226.78125 299.195312 C 234.492188 288.59375 255.363281 258.734375 285.039062 207.929688 C 251.195312 246.234375 226.78125 299.195312 226.78125 299.195312 Z M 269.800781 229.96875 C 262.125 242.652344 254.230469 255.226562 246.117188 267.652344 C 244.617188 269.953125 243.117188 272.257812 241.582031 274.523438 L 242.351562 273.171875 C 247.285156 264.324219 252.511719 255.628906 258.03125 247.148438 C 261.796875 241.335938 265.707031 235.597656 269.800781 229.96875 Z M 269.800781 229.96875 " fill-opacity="1" fill-rule="evenodd"/></g><g clip-path="url(#6ab2c2123c)"><path fill="#eeeeeb" d="M 387.816406 259.574219 C 386.683594 263.230469 385.476562 266.8125 384.234375 270.429688 C 383.796875 271.710938 383.320312 272.988281 382.847656 274.269531 L 382.371094 275.546875 L 383.464844 276.386719 C 387.925781 279.824219 392.53125 283.183594 397.28125 286.183594 C 398.855469 287.167969 400.570312 288.230469 402.214844 289.035156 L 403.53125 289.691406 L 404.480469 288.558594 C 406.238281 286.292969 408.171875 283.367188 409.34375 280.296875 L 415.886719 291.226562 L 419.90625 292.761719 L 420.234375 292.761719 C 420.929688 292.761719 421.660156 292.796875 422.390625 292.835938 C 422.753906 292.871094 423.121094 292.910156 423.484375 292.871094 L 424.144531 292.835938 L 424.617188 292.363281 C 425.167969 291.777344 425.679688 290.898438 426.117188 290.242188 L 428.527344 286.660156 C 428.636719 286.476562 429.332031 285.269531 429.515625 285.234375 C 429.699219 285.160156 430.757812 285.746094 430.941406 285.820312 C 431.195312 285.964844 431.414062 286.074219 431.707031 286.183594 L 432.328125 286.40625 L 432.988281 286.148438 C 433.390625 285.964844 433.792969 285.710938 434.15625 285.453125 L 436.09375 284.175781 L 452.722656 292.289062 L 454.332031 299.964844 C 454.367188 300.914062 452.90625 302.597656 452.320312 303.21875 L 451.699219 303.804688 L 452.394531 310.566406 C 452.101562 311.078125 451.808594 311.625 451.554688 312.136719 C 450.496094 314.074219 449.359375 315.972656 448.15625 317.875 C 443.695312 324.964844 438.46875 331.761719 433.023438 338.121094 L 431.855469 339.476562 L 434.488281 341.886719 L 435.730469 340.609375 C 437.960938 338.34375 440.117188 335.820312 442.125 333.371094 C 447.316406 327.121094 452.175781 320.507812 456.710938 313.746094 C 458.753906 313.488281 460.839844 313.34375 462.886719 313.523438 C 468.1875 313.964844 473.046875 316.742188 477.433594 319.519531 L 513.691406 342.472656 C 514.164062 345.214844 514.203125 348.6875 513.691406 351.28125 C 513.617188 351.644531 513.542969 352.011719 513.433594 352.375 C 499.984375 343.859375 486.535156 335.308594 473.121094 326.753906 L 472.757812 326.535156 L 472.355469 326.460938 C 471.292969 326.351562 469.976562 326.390625 468.917969 326.5 C 466.03125 326.71875 463.105469 327.414062 460.328125 328.363281 C 449.546875 332.019531 439.789062 339.730469 431.96875 347.808594 L 431.164062 348.648438 L 418.1875 340.828125 L 380.835938 397.511719 L 393.445312 405.261719 C 393.152344 405.847656 392.824219 406.429688 392.496094 407.050781 C 391.214844 409.28125 389.898438 411.476562 388.585938 413.667969 C 383.90625 421.414062 379.082031 429.089844 374.257812 436.730469 L 373.964844 436.695312 C 372.574219 436.660156 371.1875 436.402344 369.871094 436.148438 C 367.019531 435.523438 364.132812 434.648438 361.246094 433.589844 C 362.925781 433.589844 364.605469 433.40625 366.140625 432.96875 C 374.4375 430.589844 376.628906 422.40625 376.628906 414.691406 L 376.628906 413.886719 L 376.046875 413.339844 C 375.753906 413.046875 375.351562 412.753906 374.949219 412.464844 L 374.839844 411.953125 C 374.4375 409.796875 372.792969 407.710938 370.855469 405.921875 C 373.011719 403.65625 374.144531 400.804688 374 397.660156 C 373.925781 396.382812 373.597656 394.703125 373.011719 393.496094 L 372.828125 393.203125 L 362.339844 383.664062 L 362.414062 383.589844 L 361.71875 383.113281 L 360.914062 382.382812 L 360.769531 382.457031 L 355.835938 378.984375 L 355.285156 378.949219 C 350.390625 378.804688 345.492188 378.4375 340.59375 377.925781 C 334.710938 377.304688 329.957031 375.292969 325.097656 372.078125 L 324.402344 371.605469 L 324.367188 371.605469 L 323.5625 371.019531 C 322.429688 370.25 321.332031 369.410156 320.273438 368.570312 C 322.0625 366.996094 323.746094 365.316406 325.351562 363.5625 C 345.015625 342.109375 361.902344 317.730469 374.546875 291.523438 C 378.238281 283.886719 381.601562 276.027344 384.414062 268.023438 C 385.21875 265.792969 385.953125 263.601562 386.644531 261.371094 C 386.863281 260.566406 387.082031 259.800781 387.300781 258.996094 C 387.484375 258.921875 387.8125 258.777344 388.105469 258.667969 L 387.851562 259.472656 Z M 352.402344 430.078125 Z M 385.769531 257.636719 C 383.101562 267.945312 377.328125 281.503906 372.867188 290.714844 C 360.332031 316.738281 343.519531 341.042969 324.003906 362.277344 C 321.554688 364.945312 319.980469 366.371094 317.351562 368.636719 L 322.503906 372.511719 C 319.980469 373.316406 313.21875 375.324219 302.183594 378.503906 L 297.6875 380.152344 C 297.6875 380.152344 285.808594 385.558594 283.542969 394.332031 C 285.40625 387.242188 295.929688 381.464844 302.730469 379.566406 L 324.074219 373.609375 C 328.972656 376.863281 333.980469 379.089844 340.410156 379.75 C 345.347656 380.261719 350.28125 380.664062 355.25 380.808594 L 359.527344 383.804688 C 359.527344 383.804688 355.910156 387.203125 356.566406 392.320312 C 356.566406 392.320312 356.785156 386.21875 360.589844 384.535156 L 371.332031 394.332031 C 371.332031 394.332031 374.148438 399.960938 369.359375 404.859375 L 353.570312 395.9375 L 341.726562 388.8125 C 337.34375 385.777344 328.425781 385.777344 323.308594 386.289062 C 307.003906 387.933594 290.523438 392.796875 282.078125 399.628906 C 278.023438 402.445312 276.121094 409.5 278.316406 424.738281 C 279.558594 433.511719 282.261719 444.585938 287.488281 458.582031 C 284.492188 447.875 274.039062 416.550781 280.433594 404.089844 C 281.238281 402.480469 282.335938 401.199219 283.761719 400.285156 C 296.003906 392.539062 311.832031 388.738281 325.535156 387.496094 C 339.316406 386.253906 340.742188 390.273438 353.863281 397.4375 C 353.863281 397.4375 371.773438 405.660156 373.050781 412.277344 C 361.902344 408.511719 354.996094 408.914062 354.996094 408.914062 L 352.804688 408.402344 C 354.777344 417.757812 363.65625 419.730469 373.453125 415.234375 C 369.46875 416.808594 357.589844 420.464844 353.753906 409.535156 C 360.953125 409.789062 371.625 411.652344 374.804688 414.6875 C 374.769531 436.179688 357.921875 432.011719 352.402344 430.074219 L 351.011719 429.417969 L 342.425781 429.453125 C 335.1875 429.308594 333.433594 428.6875 333.433594 428.6875 L 324.296875 416.1875 L 333.066406 429.96875 C 329.960938 436.398438 326.304688 439.214844 324.917969 438.996094 L 306.53125 438.996094 L 324.367188 439.800781 C 326.085938 455.917969 325.242188 464.359375 325.242188 464.359375 L 311.464844 475.507812 L 325.242188 465.714844 C 330.761719 475.765625 344.652344 479.820312 342.898438 493.527344 L 326.484375 507.308594 L 343.515625 494.148438 C 351.339844 503.214844 356.308594 514.800781 361.972656 521.414062 C 377.289062 539.214844 386.679688 544.328125 386.679688 544.328125 C 408.425781 539.324219 439.3125 529.492188 447.460938 506.246094 L 447.242188 504.34375 C 446.4375 495.757812 446.257812 488.59375 446.292969 483.183594 C 446.367188 469.878906 449.144531 464.359375 453.089844 451.496094 L 516.503906 363.558594 C 516.941406 362.972656 517.636719 361.109375 517.890625 360.414062 C 518.804688 357.820312 519.390625 355.078125 519.753906 352.375 C 521.109375 342.46875 519.390625 332.308594 516.027344 322.988281 L 515.734375 322.476562 C 513.105469 319.40625 508.316406 315.09375 505.28125 312.496094 C 495.597656 304.273438 484.816406 297.144531 473.703125 291.042969 C 466.722656 287.242188 461.644531 289.65625 454.371094 290.457031 L 453.347656 290.566406 L 435.949219 282.050781 L 432.292969 284.429688 C 432.109375 284.355469 431.855469 284.246094 431.746094 284.171875 C 430.867188 283.734375 429.953125 283.148438 428.929688 283.476562 C 427.945312 283.804688 427.542969 284.832031 426.996094 285.632812 L 423.339844 291.042969 C 423.082031 291.042969 422.679688 291.007812 422.5 291.007812 C 421.730469 290.96875 421 290.933594 420.234375 290.898438 L 417.164062 289.726562 L 411.207031 279.859375 C 412.851562 275.179688 412.191406 270.320312 408.0625 267.066406 C 403.019531 263.082031 397.097656 259.71875 391.140625 257.308594 C 390.445312 257.015625 389.605469 256.578125 388.839844 256.578125 C 388.070312 256.578125 387.230469 257.050781 386.535156 257.308594 Z M 384.601562 274.925781 C 384.601562 274.925781 386.683594 269.296875 389.605469 260.015625 C 393.699219 261.257812 399.109375 264.621094 402.691406 267.105469 C 403.203125 267.46875 403.714844 267.835938 404.1875 268.199219 C 406.453125 269.953125 408.171875 271.78125 408.464844 273.757812 C 409.085938 277.851562 406.421875 283.113281 403.019531 287.386719 C 403.019531 287.386719 396.589844 284.207031 384.601562 274.925781 Z M 335.003906 430.84375 C 336.464844 431.027344 337.925781 431.136719 339.390625 431.207031 C 338.660156 431.539062 337.890625 431.902344 337.195312 432.304688 C 333.359375 434.425781 330.140625 437.605469 328.167969 441.515625 C 327.546875 442.71875 327.070312 443.964844 326.742188 445.242188 C 326.597656 443.707031 326.449219 442.136719 326.304688 440.601562 C 327.582031 440.160156 328.824219 439.101562 329.667969 438.261719 C 331.710938 436.175781 333.429688 433.472656 334.710938 430.804688 Z M 329.8125 458.585938 C 323.050781 443.890625 335.296875 430.367188 350.609375 431.027344 C 368.191406 439.394531 375.28125 438.519531 375.28125 438.519531 C 389.425781 416.152344 396.257812 404.785156 395.710938 404.457031 L 383.433594 396.960938 L 418.738281 343.347656 L 489.644531 385.925781 L 433.285156 349.085938 C 455.433594 326.203125 472.136719 328.289062 472.136719 328.289062 C 498.851562 345.320312 514.351562 355.113281 514.351562 355.113281 C 517.128906 349.667969 515.335938 341.335938 515.335938 341.335938 L 478.421875 317.945312 C 468.113281 311.4375 463.582031 311 455.617188 312.023438 C 444.066406 329.492188 434.417969 339.324219 434.417969 339.324219 C 448.855469 322.476562 454.261719 310.890625 454.261719 310.890625 L 453.640625 304.492188 C 456.636719 301.496094 456.164062 299.597656 456.164062 299.597656 L 454.554688 292.066406 C 462.378906 291.191406 466.542969 288.960938 472.941406 292.46875 C 501.082031 307.894531 514.53125 323.535156 514.53125 323.535156 C 523.230469 347.839844 515.226562 362.605469 515.226562 362.605469 L 446.953125 457.230469 C 438.511719 468.890625 417.789062 494.621094 407.480469 500.394531 C 402.183594 503.355469 395.96875 503.390625 390.886719 502.589844 C 374.585938 500.03125 343.957031 478.832031 329.8125 458.585938 Z M 328.277344 459.644531 C 334.015625 467.832031 341.65625 475.359375 349.332031 481.71875 C 356.09375 487.3125 363.476562 492.5 371.1875 496.777344 C 376.886719 499.957031 384.089844 503.394531 390.59375 504.417969 C 396.589844 505.367188 402.984375 505 408.394531 502.003906 C 410.148438 501.015625 411.792969 499.738281 413.328125 498.457031 C 415.300781 496.851562 417.164062 495.09375 418.957031 493.339844 C 423.195312 489.136719 427.214844 484.679688 431.125 480.144531 C 434.453125 476.234375 437.707031 472.289062 440.886719 468.230469 C 443.078125 465.453125 445.273438 462.640625 447.355469 459.789062 L 448.269531 460.484375 C 447.574219 462.714844 446.878906 464.941406 446.332031 467.207031 C 445.015625 472.582031 444.503906 477.699219 444.433594 483.179688 C 444.394531 490.308594 444.761719 497.433594 445.417969 504.523438 L 445.5625 506.023438 C 437.59375 527.988281 407.734375 537.492188 386.976562 542.351562 C 386.648438 542.132812 386.28125 541.914062 385.953125 541.695312 C 384.308594 540.597656 382.738281 539.355469 381.203125 538.078125 C 374.769531 532.777344 368.8125 526.527344 363.402344 520.203125 C 362.011719 518.597656 360.769531 516.804688 359.601562 515.015625 C 358.246094 512.929688 356.96875 510.777344 355.652344 508.65625 C 352.765625 503.867188 349.878906 499.078125 346.371094 494.695312 C 345.894531 494.109375 345.421875 493.523438 344.945312 492.941406 L 344.835938 492.828125 C 345.128906 489.101562 344.394531 485.667969 342.457031 482.378906 C 340.082031 478.355469 336.316406 475.285156 332.957031 472.070312 C 331.273438 470.5 329.628906 468.855469 328.242188 466.988281 C 327.800781 466.40625 327.398438 465.785156 327.035156 465.125 L 327.070312 464.539062 C 327.289062 462.421875 327.289062 460.152344 327.289062 458.070312 L 327.289062 457.265625 C 327.546875 457.960938 327.800781 458.65625 328.128906 459.351562 L 328.203125 459.496094 Z M 328.277344 459.644531 " fill-opacity="1" fill-rule="evenodd"/></g><path fill="#eeeeeb" d="M 415.007812 296.601562 L 413.144531 295.648438 L 412.449219 297.585938 C 405.25 317.140625 394.722656 335.816406 382.699219 352.773438 C 378.714844 358.367188 374.550781 363.8125 370.164062 369.039062 C 368.480469 371.050781 366.765625 373.09375 364.972656 375.035156 L 363.914062 376.128906 L 364.828125 377.371094 L 367.570312 381.136719 L 368.921875 382.964844 L 370.417969 381.28125 C 385.695312 364.582031 399.257812 345.832031 409.820312 325.800781 C 412.851562 320.0625 415.703125 314.140625 418.152344 308.148438 C 419.027344 305.917969 419.980469 303.582031 420.675781 301.3125 L 421.148438 299.816406 L 419.796875 299.121094 Z M 414.167969 298.242188 L 418.917969 300.730469 C 418.917969 300.730469 407.078125 338.449219 369.066406 380.042969 L 366.324219 376.277344 C 366.324219 376.277344 397.792969 342.722656 414.167969 298.242188 Z M 414.167969 298.242188 " fill-opacity="1" fill-rule="evenodd"/><path fill="#eeeeeb" d="M 293.957031 443.085938 C 291.144531 415.601562 328.277344 405.296875 329.191406 405.039062 C 334.527344 404.34375 338.660156 404.417969 341.949219 404.894531 C 334.234375 403.140625 328.132812 403.796875 322.394531 406.027344 C 312.414062 409.863281 307.042969 413.773438 299.296875 421.449219 C 299.296875 421.449219 296.589844 420.171875 292.9375 417.285156 C 294.289062 418.488281 296.226562 420.246094 298.453125 422.546875 C 298.453125 422.546875 295.457031 425.253906 293.8125 431.136719 C 293.8125 431.136719 291.472656 434.097656 292.386719 440.859375 C 294.542969 457.011719 296.1875 476.640625 297.101562 493.707031 C 296.441406 474.777344 295.710938 459.9375 293.957031 443.085938 Z M 293.957031 443.085938 " fill-opacity="1" fill-rule="evenodd"/><path fill="#eeeeeb" d="M 351.414062 433.476562 C 337.597656 432.890625 326.597656 445.097656 332.664062 458.292969 C 345.015625 475.980469 371.296875 494.4375 386.28125 497.691406 C 371.988281 490.671875 342.785156 470.828125 338.582031 453.320312 C 336.207031 443.488281 344.832031 437.164062 353.53125 438.882812 C 367.238281 441.625 373.636719 440.234375 373.636719 440.234375 C 373.636719 440.234375 367.238281 441.042969 351.414062 433.476562 Z M 352.109375 476.089844 C 345.601562 470.683594 339.132812 464.320312 334.273438 457.378906 C 332.40625 453.210938 332.226562 448.679688 334.308594 444.511719 C 337.414062 438.375 344.285156 435.15625 350.9375 435.304688 C 352.472656 436.035156 354.042969 436.730469 355.652344 437.421875 C 355.066406 437.3125 354.484375 437.203125 353.898438 437.09375 C 348.746094 436.070312 343.152344 437.53125 339.609375 441.480469 C 336.539062 444.878906 335.734375 449.375 336.792969 453.761719 C 338.730469 461.835938 345.421875 469.804688 352.109375 476.089844 Z M 352.109375 476.089844 " fill-opacity="1" fill-rule="evenodd"/><path fill="#eeeeeb" d="M 396.257812 444.039062 L 424.839844 461.582031 L 444.613281 433.765625 L 415.300781 414.980469 Z M 424.328125 459.132812 L 398.855469 443.488281 L 415.851562 417.539062 L 441.984375 434.28125 Z M 424.328125 459.132812 " fill-opacity="1" fill-rule="evenodd"/><path fill="#eeeeeb" d="M 399.769531 393.929688 L 451.8125 425.582031 C 457.222656 428.394531 465.484375 424.554688 463.363281 418.234375 C 457.074219 409.351562 464.277344 402.113281 473.375 403.320312 C 480.46875 400.945312 480.90625 395.28125 475.386719 390.566406 L 426.082031 358.988281 C 418.625 354.199219 411.171875 360.046875 412.488281 366.1875 C 413.109375 368.964844 414.058594 370.648438 414.679688 372.074219 C 416.835938 377.152344 412.15625 382.234375 406.933594 382.707031 C 404.445312 382.929688 402.070312 381.976562 399.878906 382.78125 C 393.808594 385.046875 396.148438 390.605469 399.769531 393.929688 Z M 452.472656 423.828125 L 400.898438 392.46875 C 399.511719 391.152344 397.609375 388.667969 398.011719 386.730469 C 398.269531 385.5625 399.476562 384.902344 400.5 384.539062 C 400.792969 384.425781 401.085938 384.355469 401.375 384.316406 C 402.179688 384.246094 403.019531 384.355469 403.789062 384.425781 C 404.882812 384.539062 405.980469 384.648438 407.078125 384.539062 C 411.425781 384.136719 415.664062 381.066406 416.800781 376.753906 C 417.273438 374.925781 417.128906 373.097656 416.359375 371.34375 C 416.03125 370.539062 415.628906 369.734375 415.300781 368.929688 C 414.863281 367.90625 414.535156 366.882812 414.277344 365.789062 C 414.09375 364.910156 414.167969 363.996094 414.421875 363.15625 C 415.042969 361.363281 416.542969 360.011719 418.296875 359.429688 C 420.636719 358.660156 423.085938 359.246094 425.09375 360.5625 L 474.253906 392.03125 C 475.789062 393.382812 477.691406 395.574219 477.25 397.765625 C 476.886719 399.667969 474.875 400.835938 473.15625 401.457031 C 468.296875 400.945312 462.8125 402.59375 460.328125 407.085938 C 458.097656 411.070312 459.230469 415.492188 461.679688 419.074219 C 461.933594 419.988281 461.933594 420.941406 461.460938 421.816406 C 460.765625 423.167969 459.230469 424.046875 457.804688 424.414062 C 456.125 424.851562 454.257812 424.742188 452.726562 423.972656 L 452.503906 423.828125 Z M 452.472656 423.828125 " fill-opacity="1" fill-rule="evenodd"/><path fill="#eeeeeb" d="M 439.09375 348.5 C 446.625 341.738281 459.160156 335.816406 469.578125 336.695312 C 479.773438 337.535156 489.824219 343.382812 499.402344 348.71875 C 493.371094 344.882812 483.90625 338.886719 471.660156 331.066406 C 471.660156 331.066406 457.660156 329.347656 439.09375 348.5 Z M 475.71875 335.851562 C 473.742188 335.378906 471.734375 335.011719 469.722656 334.867188 C 466.175781 334.574219 462.558594 334.976562 459.050781 335.890625 C 460.292969 335.304688 461.574219 334.792969 462.886719 334.355469 C 464.933594 333.660156 467.089844 333.113281 469.285156 332.929688 C 469.796875 332.894531 470.453125 332.855469 471.039062 332.894531 Z M 475.71875 335.851562 " fill-opacity="1" fill-rule="evenodd"/><path fill="#eeeeeb" d="M 500.058594 318.382812 C 504.371094 321.527344 508.136719 324.414062 510.546875 326.570312 C 513.542969 329.238281 514.824219 331.832031 516.101562 337.972656 C 515.589844 333.808594 514.53125 329.089844 512.703125 323.9375 C 512.703125 323.9375 508.425781 319.003906 499.691406 312.023438 C 493.441406 307.015625 484.050781 299.960938 473.085938 293.96875 C 467.128906 290.679688 463.253906 292.761719 455.945312 293.566406 L 457.039062 298.753906 L 468.957031 297.621094 C 468.371094 296.417969 487.046875 308.914062 500.058594 318.382812 Z M 492.308594 310.597656 C 487.15625 307.015625 481.964844 303.433594 476.703125 300 C 475.09375 298.9375 473.488281 297.914062 471.84375 296.929688 C 470.855469 296.34375 469.355469 295.320312 468.1875 295.832031 L 458.5 296.746094 L 458.136719 295.140625 C 459.488281 294.957031 460.804688 294.699219 462.121094 294.480469 C 463.617188 294.226562 465.191406 294.007812 466.6875 294.042969 C 468.699219 294.078125 470.417969 294.628906 472.207031 295.578125 C 481.527344 300.695312 490.261719 306.835938 498.558594 313.449219 C 501.886719 316.117188 505.101562 318.898438 508.171875 321.894531 C 508.683594 322.40625 509.230469 322.917969 509.78125 323.464844 C 508.902344 322.769531 508.023438 322.078125 507.148438 321.382812 C 505.175781 319.847656 503.164062 318.386719 501.152344 316.921875 C 498.230469 314.765625 495.269531 312.679688 492.308594 310.597656 Z M 492.308594 310.597656 " fill-opacity="1" fill-rule="evenodd"/></svg>